<?xml version="1.0" encoding="UTF-8"?>
<svg width="188px" height="64px" viewBox="0 0 188 64" version="1.1" xmlns="http://www.w3.org/2000/svg" xmlns:xlink="http://www.w3.org/1999/xlink">
    <!-- Generator: Sketch 48.2 (47327) - http://www.bohemiancoding.com/sketch -->
    <title>Logo</title>
    <desc>Created with Sketch.</desc>
    <defs>
        <linearGradient x1="3.061617e-15%" y1="50%" x2="100%" y2="50%" id="linearGradient-1">
            <stop stop-color="#FABD61" offset="0%"></stop>
            <stop stop-color="#EC7633" offset="100%"></stop>
        </linearGradient>
        <linearGradient x1="50%" y1="100%" x2="50%" y2="3.061617e-15%" id="linearGradient-2">
            <stop stop-color="#FFBD59" offset="0%"></stop>
            <stop stop-color="#EC7633" offset="100%"></stop>
        </linearGradient>
    </defs>
    <g id="Shortcodes" stroke="none" stroke-width="1" fill="none" fill-rule="evenodd" transform="translate(-186.000000, -33.000000)">
        <g id="Hero">
            <g id="Logo" transform="translate(186.000000, 33.000000)">
                <path d="M79.324,28.744 C78.6759968,28.347998 77.9890036,28.0330012 77.263,27.799 C76.5369964,27.5649988 75.9160026,27.448 75.4,27.448 C74.9079975,27.448 74.5180014,27.5379991 74.23,27.718 C73.9419986,27.8980009 73.798,28.1619983 73.798,28.51 C73.798,28.9540022 74.0049979,29.2929988 74.419,29.527 C74.8330021,29.7610012 75.4719957,30.0039987 76.336,30.256 C77.2000043,30.5080013 77.9109972,30.7599987 78.469,31.012 C79.0270028,31.2640013 79.503998,31.6419975 79.9,32.146 C80.296002,32.6500025 80.494,33.3159959 80.494,34.144 C80.494,34.948004 80.2810021,35.6409971 79.855,36.223 C79.4289979,36.8050029 78.8440037,37.2459985 78.1,37.546 C77.3559963,37.8460015 76.5100047,37.996 75.562,37.996 C74.5419949,37.996 73.5400049,37.8160018 72.556,37.456 C71.5719951,37.0959982 70.7200036,36.6040031 70,35.98 L71.134,33.658 C71.7700032,34.2340029 72.5019959,34.6959983 73.33,35.044 C74.1580041,35.3920017 74.9139966,35.566 75.598,35.566 C76.1860029,35.566 76.6449983,35.4580011 76.975,35.242 C77.3050016,35.0259989 77.47,34.714002 77.47,34.306 C77.47,33.9819984 77.3590011,33.715001 77.137,33.505 C76.9149989,33.294999 76.6330017,33.1240007 76.291,32.992 C75.9489983,32.8599993 75.478003,32.7100008 74.878,32.542 C74.0139957,32.3019988 73.3090027,32.0620012 72.763,31.822 C72.2169973,31.5819988 71.746002,31.2160025 71.35,30.724 C70.953998,30.2319975 70.756,29.5780041 70.756,28.762 C70.756,28.0059962 70.959998,27.3430029 71.368,26.773 C71.776002,26.2029972 72.3459963,25.7650015 73.078,25.459 C73.8100037,25.1529985 74.6619951,25 75.634,25 C76.4980043,25 77.3499958,25.1259987 78.19,25.378 C79.0300042,25.6300013 79.7739968,25.9659979 80.422,26.386 L79.324,28.744 Z M96.838,25.234 C98.446008,25.234 99.6879956,25.6149962 100.564,26.377 C101.440004,27.1390038 101.878,28.215993 101.878,29.608 C101.878,31.0720073 101.437004,32.208996 100.555,33.019 C99.6729956,33.8290041 98.434008,34.234 96.838,34.234 L94.336,34.234 L94.336,37.834 L91.492,37.834 L91.492,25.234 L96.838,25.234 Z M96.694,31.858 C97.498004,31.858 98.1129979,31.6750018 98.539,31.309 C98.9650021,30.9429982 99.178,30.4060035 99.178,29.698 C99.178,29.0019965 98.9650021,28.4770018 98.539,28.123 C98.1129979,27.7689982 97.498004,27.592 96.694,27.592 L94.336,27.592 L94.336,31.858 L96.694,31.858 Z M112.696,25.234 L122.29,25.234 L122.29,27.592 L115.54,27.592 L115.54,30.328 L121.606,30.328 L121.606,32.686 L115.54,32.686 L115.54,35.476 L122.488,35.476 L122.488,37.834 L112.696,37.834 L112.696,25.234 Z M142.846,29.176 C142.413998,28.6599974 141.907003,28.2550015 141.325,27.961 C140.742997,27.6669985 140.158003,27.52 139.57,27.52 C138.861996,27.52 138.214003,27.6939983 137.626,28.042 C137.037997,28.3900017 136.576002,28.863997 136.24,29.464 C135.903998,30.064003 135.736,30.7299963 135.736,31.462 C135.736,32.1940037 135.903998,32.862997 136.24,33.469 C136.576002,34.075003 137.037997,34.5549982 137.626,34.909 C138.214003,35.2630018 138.861996,35.44 139.57,35.44 C140.134003,35.44 140.706997,35.3050013 141.289,35.035 C141.871003,34.7649986 142.389998,34.4020023 142.846,33.946 L144.52,35.764 C143.847997,36.4600035 143.059005,37.011998 142.153,37.42 C141.246995,37.828002 140.338005,38.032 139.426,38.032 C138.189994,38.032 137.068005,37.7470029 136.06,37.177 C135.051995,36.6069971 134.260003,35.824005 133.684,34.828 C133.107997,33.831995 132.82,32.7220061 132.82,31.498 C132.82,30.2859939 133.113997,29.1880049 133.702,28.204 C134.290003,27.2199951 135.096995,26.4460028 136.123,25.882 C137.149005,25.3179972 138.285994,25.036 139.534,25.036 C140.446005,25.036 141.345996,25.2249981 142.234,25.603 C143.122004,25.9810019 143.877997,26.4939968 144.502,27.142 L142.846,29.176 Z M153.97,25.234 L164.5,25.234 L164.5,27.646 L160.648,27.646 L160.648,37.834 L157.804,37.834 L157.804,27.646 L153.97,27.646 L153.97,25.234 Z M180.898,25.036 C182.158006,25.036 183.303995,25.3179972 184.336,25.882 C185.368005,26.4460028 186.180997,27.2229951 186.775,28.213 C187.369003,29.203005 187.666,30.3039939 187.666,31.516 C187.666,32.7280061 187.369003,33.831995 186.775,34.828 C186.180997,35.824005 185.368005,36.6069971 184.336,37.177 C183.303995,37.7470029 182.158006,38.032 180.898,38.032 C179.637994,38.032 178.492005,37.7470029 177.46,37.177 C176.427995,36.6069971 175.615003,35.827005 175.021,34.837 C174.426997,33.8469951 174.13,32.7400061 174.13,31.516 C174.13,30.3039939 174.426997,29.203005 175.021,28.213 C175.615003,27.2229951 176.424995,26.4460028 177.451,25.882 C178.477005,25.3179972 179.625994,25.036 180.898,25.036 Z M180.934,27.52 C180.237997,27.52 179.590003,27.6969982 178.99,28.051 C178.389997,28.4050018 177.916002,28.8879969 177.568,29.5 C177.219998,30.1120031 177.046,30.7839963 177.046,31.516 C177.046,32.2600037 177.222998,32.9379969 177.577,33.55 C177.931002,34.1620031 178.404997,34.6479982 178.999,35.008 C179.593003,35.3680018 180.237997,35.548 180.934,35.548 C181.630003,35.548 182.268997,35.3710018 182.851,35.017 C183.433003,34.6629982 183.894998,34.1770031 184.237,33.559 C184.579002,32.9409969 184.75,32.2600037 184.75,31.516 C184.75,30.7839963 184.579002,30.1120031 184.237,29.5 C183.894998,28.8879969 183.433003,28.4050018 182.851,28.051 C182.268997,27.6969982 181.630003,27.52 180.934,27.52 Z" id="specto" fill="#FFFFFF"></path>
                <g id="s-copy">
                    <path d="M43.75,17.4768519 C40.7407257,15.7021516 37.6350469,14.3132766 34.4328704,13.3101852 C31.2306939,12.3070937 28.2793345,11.8055556 25.5787037,11.8055556 C23.0323947,11.8055556 21.006952,12.249224 19.5023148,13.1365741 C17.9976777,14.0239242 17.2453704,15.3935093 17.2453704,17.2453704 C17.2453704,19.1743924 18.190577,20.659717 20.0810185,21.7013889 C21.9714601,22.7430608 24.9613993,23.8425868 29.0509259,25 C33.3719352,26.311735 36.9212824,27.6041603 39.6990741,28.8773148 C42.4768657,30.1504693 44.8881071,32.0408825 46.9328704,34.5486111 C48.9776337,37.0563397 50,40.3549178 50,44.4444444 C50,50.4629931 47.6852083,55.0925764 43.0555556,58.3333333 C38.4259028,61.5740903 32.6003437,63.1944444 25.5787037,63.1944444 C20.7947292,63.1944444 16.126566,62.4421372 11.5740741,60.9375 C7.02158218,59.4328628 3.16359606,57.2916806 0,54.5138889 L5.20833333,43.9814815 C7.986125,46.3734688 11.3039931,48.244592 15.162037,49.5949074 C19.020081,50.9452228 22.6851678,51.6203704 26.1574074,51.6203704 C28.9351991,51.6203704 31.1535411,51.1381221 32.8125,50.1736111 C34.4714589,49.2091001 35.3009259,47.7623553 35.3009259,45.8333333 C35.3009259,43.6728287 34.3364294,42.0524745 32.4074074,40.9722222 C30.4783854,39.8919699 27.3534167,38.6959942 23.0324074,37.3842593 C18.8657199,36.1496852 15.4706921,34.9344196 12.8472222,33.7384259 C10.2237523,32.5424323 7.94754051,30.7291788 6.01851852,28.2986111 C4.08949653,25.8680434 3.125,22.6852049 3.125,18.75 C3.125,12.6542905 5.34334201,8.00541725 9.78009259,4.80324074 C14.2168432,1.60106424 19.7916331,0 26.5046296,0 C30.5941563,0 34.6257517,0.578697917 38.599537,1.73611111 C42.5733223,2.89352431 46.1033796,4.51387847 49.1898148,6.59722222 L43.75,17.4768519 Z" id="Mask" fill="url(#linearGradient-1)"></path>
                    <path d="M20.0810185,21.7013889 C21.9714601,22.7430608 24.9613993,23.8425868 29.0509259,25 C33.3719352,26.311735 36.9212824,27.6041603 39.6990741,28.8773148 C42.4768657,30.1504693 44.8881071,32.0408825 46.9328704,34.5486111 C48.9776337,37.0563397 50,40.3549178 50,44.4444444 C50,48.2256457 49.086333,51.4586111 47.2589817,54.1433751 C46.1777329,55.7319575 49,50 32.4074074,40.9722222 C30.4783854,39.8919699 27.3534167,38.6959942 23.0324074,37.3842593 C18.8657199,36.1496852 15.4706921,34.9344196 12.8472222,33.7384259 C10.2237523,32.5424323 7.94754051,30.7291788 6.01851852,28.2986111 C4.08949653,25.8680434 3.125,22.6852049 3.125,18.75 C3.125,14.5055465 4.20053251,10.9625716 6.35162,8.12102815 C7.28983586,6.88166381 3.125,16 20.0810185,21.7013889 Z" fill="url(#linearGradient-2)"></path>
                </g>
            </g>
        </g>
    </g>
</svg>